<svg 
  xmlns="http://www.w3.org/2000/svg" xmlns:xlink="http://www.w3.org/1999/xlink" id="visual" viewBox="0 0 900 675" width="900" height="675" version="1.1">
    <rect x="0" y="0" width="900" height="675" fill="#000"/>
    <path fill="#f5730a" d="M0 330L129 336L257 305L386 390L514 408L643 450L771 364L900 263L900 676L771 676L643 676L514 676L386 676L257 676L129 676L0 676Z"/>
    <path fill="#ea4735" d="M0 422L129 442L257 444L386 479L514 394L643 356L771 372L900 334L900 676L771 676L643 676L514 676L386 676L257 676L129 676L0 676Z"/>
    <path d="M0 452L129 390L257 426L386 433L514 523L643 416L771 474L900 410L900 676L771 676L643 676L514 676L386 676L257 676L129 676L0 676Z" fill="#d21b4d"/>
    <path d="M0 459L129 535L257 461L386 510L514 474L643 525L771 469L900 465L900 676L771 676L643 676L514 676L386 676L257 676L129 676L0 676Z" fill="#ad005e"/>
    <path d="M0 543L129 510L257 568L386 516L514 584L643 589L771 559L900 597L900 676L771 676L643 676L514 676L386 676L257 676L129 676L0 676Z" fill="#7b006b"/>
    <path d="M0 631L129 591L257 610L386 591L514 603L643 617L771 559L900 598L900 676L771 676L643 676L514 676L386 676L257 676L129 676L0 676Z" fill="#33006f"/>
</svg>